<svg width="22" height="20" viewBox="0 0 22 20" fill="none" xmlns="http://www.w3.org/2000/svg">
<path d="M18.392 13.0399C18.777 12.1039 18.986 11.1017 18.986 10.0004C18.986 9.2075 18.865 8.44762 18.656 7.7428C17.941 7.90799 17.193 7.9961 16.412 7.9961C14.8126 7.99781 13.2362 7.61453 11.8157 6.87855C10.3952 6.14256 9.17227 5.07546 8.25 3.7672C7.26341 6.15716 5.40224 8.07957 3.047 9.14142C3.003 9.41674 3.003 9.71409 3.003 10.0004C3.003 11.0518 3.20985 12.0929 3.61174 13.0643C4.01362 14.0357 4.60268 14.9183 5.34527 15.6617C6.845 17.1632 8.87906 18.0067 11 18.0067C12.155 18.0067 13.266 17.7534 14.267 17.3019C14.894 18.5023 15.18 19.097 15.158 19.097C13.354 19.7027 11.957 20 11 20C8.338 20 5.797 18.9538 3.927 17.0706C2.7896 15.9354 1.94411 14.541 1.463 13.0069H0V7.9961H1.199C1.56227 6.22581 2.39744 4.587 3.61591 3.25355C4.83437 1.92011 6.39068 0.941772 8.11968 0.422356C9.84869 -0.097059 11.6859 -0.138178 13.4364 0.303362C15.1868 0.744901 16.7852 1.65263 18.062 2.93023C19.4482 4.31261 20.3938 6.07558 20.779 7.9961H22V13.0069H21.934L18.018 16.6081L12.188 15.9473V14.1082H17.501L18.392 13.0399ZM7.997 9.74712C8.327 9.74712 8.646 9.87928 8.877 10.1216C9.10915 10.3559 9.23941 10.6725 9.23941 11.0026C9.23941 11.3326 9.10915 11.6493 8.877 11.8836C8.646 12.1149 8.327 12.247 7.997 12.247C7.304 12.247 6.743 11.6964 6.743 11.0026C6.743 10.3088 7.304 9.74712 7.997 9.74712ZM13.992 9.74712C14.685 9.74712 15.235 10.3088 15.235 11.0026C15.235 11.6964 14.685 12.247 13.992 12.247C13.299 12.247 12.738 11.6964 12.738 11.0026C12.738 10.6696 12.8701 10.3503 13.1053 10.1148C13.3405 9.87939 13.6594 9.74712 13.992 9.74712Z" fill="#3F4756"/>
</svg>
