<svg width="26" height="16" viewBox="0 0 26 16" fill="none" xmlns="http://www.w3.org/2000/svg">
<path fill-rule="evenodd" clip-rule="evenodd" d="M1 3.5C1 2.70435 1.31607 1.94129 1.87868 1.37868C2.44129 0.81607 3.20435 0.5 4 0.5H15.25C15.9776 0.499914 16.6805 0.764289 17.2277 1.24389C17.7749 1.72349 18.1292 2.38563 18.2245 3.107L22.8895 1.034C23.1178 0.932257 23.368 0.889195 23.6172 0.908728C23.8664 0.928261 24.1068 1.00977 24.3165 1.14584C24.5262 1.28192 24.6986 1.46824 24.8179 1.68789C24.9373 1.90753 24.9999 2.15352 25 2.4035V13.5965C24.9998 13.8463 24.9372 14.0921 24.8179 14.3115C24.6986 14.531 24.5264 14.7172 24.3169 14.8532C24.1074 14.9893 23.8673 15.0708 23.6183 15.0905C23.3693 15.1102 23.1193 15.0674 22.891 14.966L18.2245 12.893C18.1292 13.6144 17.7749 14.2765 17.2277 14.7561C16.6805 15.2357 15.9776 15.5001 15.25 15.5H4C3.20435 15.5 2.44129 15.1839 1.87868 14.6213C1.31607 14.0587 1 13.2956 1 12.5V3.5ZM18.25 11.2625L23.5 13.5965V2.4035L18.25 4.7375V11.2625ZM4 2C3.60218 2 3.22064 2.15804 2.93934 2.43934C2.65804 2.72064 2.5 3.10218 2.5 3.5V12.5C2.5 12.8978 2.65804 13.2794 2.93934 13.5607C3.22064 13.842 3.60218 14 4 14H15.25C15.6478 14 16.0294 13.842 16.3107 13.5607C16.592 13.2794 16.75 12.8978 16.75 12.5V3.5C16.75 3.10218 16.592 2.72064 16.3107 2.43934C16.0294 2.15804 15.6478 2 15.25 2H4Z" fill="#3F4756" stroke="#3F4756"/>
</svg>
